<?xml version="1.0" encoding="UTF-8"?><svg xmlns="http://www.w3.org/2000/svg" xmlns:xlink="http://www.w3.org/1999/xlink" contentScriptType="text/ecmascript" width="202.5" zoomAndPan="magnify" contentStyleType="text/css" viewBox="0 0 202.5 809.999971" height="809.999971" preserveAspectRatio="xMidYMid meet" version="1.0"><defs><clipPath id="clip-0"><path d="M 0 0.996094 L 202 0.996094 L 202 809 L 0 809 Z M 0 0.996094 " clip-rule="nonzero"/></clipPath></defs><g clip-path="url(#clip-0)"><path fill="rgb(1.179504%, 49.01886%, 50.979614%)" d="M 202.5 102.246094 C 202.5 46.308594 157.191406 0.996094 101.25 0.996094 C 45.308594 0.996094 0 46.308594 0 102.246094 C 0 158.1875 45.308594 203.496094 101.25 203.496094 C 157.191406 203.496094 202.5 158.1875 202.5 102.246094 Z M 202.5 709.746094 C 202.5 653.808594 157.191406 608.496094 101.25 608.496094 C 45.308594 608.496094 0 653.808594 0 709.746094 C 0 765.6875 45.308594 810.996094 101.25 810.996094 C 157.191406 810.996094 202.5 765.6875 202.5 709.746094 Z M 202.5 405.996094 C 202.5 350.058594 157.191406 304.746094 101.25 304.746094 C 45.308594 304.746094 0 350.058594 0 405.996094 C 0 461.9375 45.308594 507.246094 101.25 507.246094 C 157.191406 507.246094 202.5 461.9375 202.5 405.996094 Z M 202.5 405.996094 " fill-opacity="1" fill-rule="nonzero"/></g></svg>